<?xml version="1.0" standalone="no"?>
<!DOCTYPE svg PUBLIC "-//W3C//DTD SVG 20010904//EN"
 "http://www.w3.org/TR/2001/REC-SVG-20010904/DTD/svg10.dtd">
<svg version="1.0" xmlns="http://www.w3.org/2000/svg"
 width="300.000000pt" height="300.000000pt" viewBox="0 0 300.000000 300.000000"
 preserveAspectRatio="xMidYMid meet">
<metadata>
Created by potrace 1.10, written by Peter Selinger 2001-2011
</metadata>
<g transform="translate(0.000000,300.000000) scale(0.100000,-0.100000)"
fill="#000000" stroke="none">
<path d="M890 2544 c-327 -189 -599 -345 -605 -347 -10 -4 320 -1566 333
-1578 13 -13 875 -509 883 -509 8 0 868 496 881 509 7 6 338 1538 338 1562 -1
14 -1189 702 -1219 706 -9 1 -284 -153 -611 -343z m1112 -154 c276 -160 503
-292 506 -294 7 -7 -279 -1329 -292 -1348 -6 -10 -169 -110 -363 -222 l-352
-204 -357 207 c-209 121 -361 215 -366 227 -4 10 -71 316 -149 678 -115 535
-139 660 -128 667 23 14 994 577 996 578 2 1 229 -130 505 -289z"/>
<path d="M1075 2279 c-231 -133 -423 -244 -428 -248 -6 -6 207 -1031 229
-1103 5 -17 44 -18 624 -18 580 0 619 1 624 18 24 78 236 1096 229 1102 -11
11 -845 490 -852 490 -3 0 -195 -109 -426 -241z m747 -155 c178 -102 324 -187
326 -189 4 -3 -168 -798 -178 -823 -10 -22 -13 -23 -132 -20 l-123 3 -3 248
-2 247 -210 0 -210 0 -2 -247 -3 -248 -123 -2 c-118 -3 -123 -2 -132 20 -17
41 -181 822 -173 825 6 2 606 350 640 371 1 1 147 -83 325 -185z"/>
<path d="M1340 1925 l0 -65 65 0 65 0 0 65 0 65 -65 0 -65 0 0 -65z"/>
<path d="M1530 1925 l0 -65 65 0 65 0 0 65 0 65 -65 0 -65 0 0 -65z"/>
<path d="M1340 1740 l0 -60 65 0 65 0 0 60 0 60 -65 0 -65 0 0 -60z"/>
<path d="M1530 1740 l0 -60 65 0 65 0 0 60 0 60 -65 0 -65 0 0 -60z"/>
<path d="M1426 819 c-56 -48 -57 -119 -4 -176 19 -21 20 -26 9 -85 -7 -35 -15
-73 -18 -85 -5 -23 -4 -23 87 -23 91 0 92 0 87 23 -3 12 -11 50 -18 84 -11 60
-11 63 14 93 97 115 -45 268 -157 169z"/>
</g>
</svg>
